/* XPM */
static char * sorca_xpm[] = {
"48 48 57 1",
" 	c None",
".	c #8A8F92",
"+	c #797E80",
"@	c #4F5153",
"#	c #222324",
"$	c #060606",
"%	c #000000",
"&	c #7F8487",
"*	c #303132",
"=	c #727679",
"-	c #7B8083",
";	c #212223",
">	c #717577",
",	c #3F4243",
"'	c #141515",
")	c #020202",
"!	c #130906",
"~	c #28120C",
"{	c #766664",
"]	c #898485",
"^	c #8A8E91",
"/	c #716A6A",
"(	c #160502",
"_	c #140201",
":	c #0A0000",
"<	c #1B0F0E",
"[	c #1F100D",
"}	c #140503",
"|	c #110100",
"1	c #070201",
"2	c #1E0F0E",
"3	c #130201",
"4	c #050000",
"5	c #0F0201",
"6	c #0D0504",
"7	c #0A0101",
"8	c #0E0100",
"9	c #100100",
"0	c #777B7E",
"a	c #0E0101",
"b	c #0E0605",
"c	c #080100",
"d	c #0D0606",
"e	c #251F20",
"f	c #807374",
"g	c #0D0EA7",
"h	c #7F7274",
"i	c #846F6D",
"j	c #86635F",
"k	c #90787B",
"l	c #A53435",
"m	c #B10C0C",
"n	c #966668",
"o	c #B30606",
"p	c #AE1314",
"q	c #8B9093",
"r	c #8A8F91",
"                                                ",
"                                                ",
"                                                ",
"          ......                ......          ",
"        ..........            ..........        ",
"      ...+@#$%#@+...        ...+@#%$#@+...      ",
"     ..&*%%%%%%%%*&..      ..&*%%%%%%%%*&..     ",
"    ..=%%%%%%%%%%%%=..    ..=%%%%%%%%%%%%=..    ",
"    .-%%%%%%%%%%%%%%-.    .-%%%%%%%%%%%%%%-.    ",
"   ..;%%%%%%%%%%%%%%;..  ..;%%%%%%%%%%%%%%;..   ",
"   .>%%%%%%%%%%%%%%%%>.  .>%%%%%%%%%%%%%%%%>.   ",
"  ..,%%%%%%%%%%%%%%%%,....,%%%%%%%%%%%%%%%%,..  ",
"  ..'%%%%%%%%%%%%%%%%'....'%%%%%%%%%%%%%%%%'..  ",
"  ..)%%%%%%%%%%%%%%%%)....)%%%%%%%%%%%%%%%%)..  ",
"  ..'%%%%%%%%%%%%%%%%'....'%%%%%%%%%%%%%%%%'..  ",
"  ..,%%%%%%%%%%%%%%%%,....,%%%%%%%%%%%%%%%%,..  ",
"   .>%%%%%%%%%%%%%%!~{]..^/(_:%%%%%%%%%%%%%>.   ",
"   ..;%%%%%%%%%%%<[...........}|%%%%%%%%%%;..   ",
"    .-%%%%%%%%%12...............34%%%%%%%%-.    ",
"    ..=%%%%%%%56.................78%%%%%%=..    ",
"     ..&*%%%%90...................0a%%%*&..     ",
"      ...+@#bc.....................de@+...      ",
"        ....f.....ggg.......ggg.....h...        ",
"          .i.....ggggg.....ggggg.....j          ",
"            .....ggggg.....ggggg.....           ",
"           ......ggggg.....ggggg......          ",
"           .......ggg.......ggg.......          ",
"           ...........................          ",
"           ...........................          ",
"          .............................         ",
"          ............klmlk............         ",
"           ..........nooooon..........          ",
"           ..........pooooop..........          ",
"           ..........nooooon..........          ",
"           ...........klmlk...........          ",
"            .........................           ",
"            .........................           ",
"             .......................            ",
"              .....................q            ",
"              r....................             ",
"                .................               ",
"                 ...............                ",
"                   ...........                  ",
"                       ...                      ",
"                                                ",
"                                                ",
"                                                ",
"                                                "};
